<?xml version="1.0" standalone="no"?>
<!DOCTYPE svg PUBLIC "-//W3C//DTD SVG 20010904//EN"
 "http://www.w3.org/TR/2001/REC-SVG-20010904/DTD/svg10.dtd">
<svg version="1.0" xmlns="http://www.w3.org/2000/svg"
 width="512.000000pt" height="512.000000pt" viewBox="0 0 512.000000 512.000000"
 preserveAspectRatio="xMidYMid meet">

<g transform="translate(0.000000,512.000000) scale(0.100000,-0.100000)"
fill="#000000" stroke="none">
<path d="M1204 5101 c-43 -26 -54 -66 -54 -197 l0 -112 -37 -13 c-21 -7 -60
-22 -87 -35 l-50 -23 -91 88 c-94 91 -126 107 -174 90 -39 -15 -329 -308 -342
-346 -15 -47 6 -86 98 -176 l80 -78 -36 -90 -36 -89 -113 0 c-208 0 -212 -6
-212 -305 0 -297 -1 -295 201 -295 l121 0 11 -32 c7 -17 24 -57 38 -87 l26
-56 -87 -90 c-95 -99 -110 -132 -86 -188 7 -18 83 -101 169 -184 151 -149 156
-153 197 -153 40 0 48 5 136 92 l94 92 33 -12 c19 -7 36 -12 39 -12 3 0 8 51
12 113 3 61 12 142 19 178 l13 66 -55 44 c-160 128 -252 318 -252 525 0 300
175 541 469 646 39 14 93 22 172 25 98 5 127 2 195 -16 168 -46 324 -159 402
-291 l17 -29 120 2 c67 1 154 -2 194 -6 l72 -8 -21 53 c-49 120 -54 98 44 196
69 69 89 96 94 124 8 52 -13 81 -179 244 -191 188 -200 189 -342 54 -88 -85
-92 -88 -116 -75 -14 8 -53 24 -87 36 l-63 23 0 128 c0 127 0 128 -29 160
l-29 33 -229 3 c-211 2 -230 1 -259 -17z"/>
<path d="M1330 4309 c-272 -73 -435 -353 -364 -624 22 -88 95 -204 150 -240
22 -14 23 -13 73 88 132 268 340 458 608 556 l63 23 -21 27 c-57 72 -165 140
-266 166 -63 17 -188 18 -243 4z"/>
<path d="M2570 4096 c36 -13 90 -35 120 -50 58 -27 72 -22 50 19 -18 34 -56
47 -150 51 l-85 4 65 -24z"/>
<path d="M2090 3899 c-433 -50 -739 -402 -779 -894 -34 -425 112 -892 374
-1199 101 -120 260 -226 380 -255 153 -38 326 1 469 103 258 185 450 540 528
976 20 115 17 415 -5 518 -66 300 -218 521 -447 650 -84 47 -226 91 -331 102
-52 5 -98 9 -104 9 -5 -1 -44 -5 -85 -10z"/>
<path d="M3305 3317 c-17 -13 -17 -17 -1 -98 31 -154 40 -297 27 -456 -6 -80
-9 -148 -7 -150 2 -2 28 3 58 12 85 26 220 30 318 11 233 -48 410 -183 510
-391 26 -55 53 -120 58 -145 43 -180 13 -382 -79 -537 -39 -64 -142 -179 -194
-214 -19 -13 -35 -26 -35 -29 0 -3 21 -30 46 -60 98 -118 194 -278 254 -422
54 -133 80 -124 302 100 91 92 169 178 173 190 16 54 -3 91 -99 191 l-93 96
38 90 38 90 140 5 141 5 32 33 33 32 3 245 c4 335 9 327 -212 335 l-139 5 -17
50 c-10 28 -27 70 -39 94 l-23 43 95 97 c150 153 149 160 -46 359 -170 173
-207 202 -257 202 -45 0 -87 -30 -184 -128 l-69 -71 -38 20 c-21 10 -63 28
-94 40 l-55 20 0 125 c0 142 -12 184 -59 208 -41 22 -497 24 -526 3z"/>
<path d="M3450 2464 c-35 -7 -89 -26 -119 -41 l-54 -28 -46 -140 c-26 -83 -74
-198 -116 -281 l-71 -142 105 -27 c223 -58 467 -182 629 -318 24 -21 48 -37
54 -37 18 0 106 70 149 118 63 72 116 191 130 293 10 72 9 98 -5 165 -36 177
-143 318 -299 393 -125 60 -228 73 -357 45z"/>
<path d="M1370 1569 c-277 -58 -503 -181 -706 -384 -185 -184 -265 -323 -379
-655 -56 -165 -66 -205 -66 -260 1 -109 51 -188 155 -243 l41 -22 1754 -3
c1996 -3 1824 -10 1917 82 62 63 90 137 81 217 -8 67 -130 417 -183 522 -201
405 -600 697 -1039 758 l-84 12 -58 -53 c-124 -113 -255 -191 -388 -231 -109
-32 -286 -37 -399 -10 -158 38 -291 111 -423 233 -72 67 -76 68 -223 37z"/>
</g>
</svg>
