<?xml version="1.0" standalone="no"?>
<!DOCTYPE svg PUBLIC "-//W3C//DTD SVG 20010904//EN"
 "http://www.w3.org/TR/2001/REC-SVG-20010904/DTD/svg10.dtd">
<svg version="1.0" xmlns="http://www.w3.org/2000/svg"
 width="512.000000pt" height="512.000000pt" viewBox="0 0 512.000000 512.000000"
 preserveAspectRatio="xMidYMid meet">

<g transform="translate(0.000000,512.000000) scale(0.100000,-0.100000)"
fill="#000000" stroke="none">
<path d="M745 4935 l-25 -24 0 -976 0 -975 -95 0 c-88 0 -98 -2 -120 -25 -25
-24 -25 -26 -25 -215 0 -189 0 -191 25 -215 l24 -25 2031 0 2031 0 24 25 c25
24 25 26 25 215 0 189 0 191 -25 215 -22 23 -32 25 -120 25 l-95 0 0 975 0
976 -25 24 -24 25 -1791 0 -1791 0 -24 -25z m3495 -1055 l0 -920 -1040 0
-1040 0 0 175 c0 173 0 176 -25 200 l-24 25 -351 0 -351 0 -24 -25 c-25 -24
-25 -27 -25 -200 l0 -175 -240 0 -240 0 0 920 0 920 1680 0 1680 0 0 -920z
m-2240 -800 l0 -120 -240 0 -240 0 0 120 0 120 240 0 240 0 0 -120z m2480
-360 l0 -80 -1920 0 -1920 0 0 80 0 80 1920 0 1920 0 0 -80z"/>
<path d="M1311 2303 c-12 -10 -30 -45 -39 -78 l-18 -60 -448 -5 -448 -5 -19
-24 c-17 -21 -19 -41 -19 -213 0 -187 0 -189 25 -213 20 -21 34 -25 80 -25
l55 0 0 -735 0 -736 25 -24 c23 -24 31 -25 135 -25 104 0 112 1 135 25 14 13
25 30 25 38 0 7 34 333 75 724 41 391 75 716 75 722 0 7 29 11 79 11 l79 0
-34 -112 c-32 -106 -34 -122 -34 -257 0 -80 5 -161 12 -182 15 -50 69 -114
119 -140 23 -11 39 -27 39 -37 0 -9 16 -172 35 -362 19 -190 35 -353 35 -363
0 -10 11 -29 25 -42 23 -24 31 -25 135 -25 104 0 112 1 135 25 14 13 25 32 25
42 0 10 16 173 35 363 19 190 35 351 35 358 0 9 25 12 90 12 65 0 90 -3 90
-12 0 -7 16 -168 35 -358 19 -190 35 -353 35 -363 0 -10 11 -29 25 -42 23 -24
31 -25 135 -25 104 0 112 1 135 25 14 13 25 32 25 42 0 10 16 173 35 363 19
190 35 353 35 362 0 10 16 26 38 37 49 25 86 66 111 121 18 39 21 66 21 195 0
142 -2 156 -34 263 l-34 112 148 0 148 0 -34 -112 c-32 -106 -34 -122 -34
-257 0 -80 5 -161 12 -182 15 -50 69 -114 119 -140 23 -11 39 -27 39 -37 0 -9
16 -172 35 -362 19 -190 35 -353 35 -363 0 -10 11 -29 25 -42 23 -24 31 -25
135 -25 104 0 112 1 135 25 14 13 25 32 25 42 0 10 16 173 35 363 19 190 35
351 35 358 0 9 25 12 90 12 65 0 90 -3 90 -12 0 -7 16 -168 35 -358 19 -190
35 -353 35 -363 0 -10 11 -29 25 -42 23 -24 31 -25 135 -25 104 0 112 1 135
25 14 13 25 32 25 42 0 10 16 173 35 363 19 190 35 353 35 362 0 10 16 26 38
37 49 25 86 66 111 121 18 39 21 66 21 195 0 142 -2 156 -34 263 l-34 112 79
0 c50 0 79 -4 79 -11 0 -6 34 -331 75 -722 41 -391 75 -717 75 -724 0 -8 11
-25 25 -38 23 -24 31 -25 135 -25 104 0 112 1 135 25 l25 24 0 736 0 735 55 0
c46 0 60 4 80 25 25 24 25 26 25 213 0 172 -2 192 -19 213 l-19 24 -448 5
-448 5 -18 60 c-30 101 3 95 -488 95 -491 0 -458 6 -488 -95 l-18 -60 -294 0
-294 0 -18 60 c-30 101 3 95 -488 95 -393 0 -430 -1 -449 -17z m818 -240 c16
-54 66 -219 110 -367 l81 -269 0 -129 c0 -124 -1 -130 -25 -153 l-24 -25 -511
0 -511 0 -24 25 c-24 23 -25 29 -25 155 l0 131 91 302 c49 166 99 330 110 365
l21 62 338 0 339 0 30 -97z m1600 0 c16 -54 66 -219 110 -367 l81 -269 0 -129
c0 -124 -1 -130 -25 -153 l-24 -25 -511 0 -511 0 -24 25 c-24 23 -25 29 -25
155 l0 131 91 302 c49 166 99 330 110 365 l21 62 338 0 339 0 30 -97z m-2529
-69 c0 -3 -10 -39 -22 -80 l-21 -74 -339 0 -338 0 0 80 0 80 360 0 c198 0 360
-3 360 -6z m1600 0 c0 -3 -10 -39 -22 -80 l-21 -74 -197 0 -197 0 -21 74 c-12
41 -22 77 -22 80 0 3 108 6 240 6 132 0 240 -3 240 -6z m1840 -74 l0 -80 -338
0 -339 0 -21 74 c-12 41 -22 77 -22 80 0 3 162 6 360 6 l360 0 0 -80z m-3850
-246 c0 -22 -141 -1341 -144 -1349 -3 -5 -5 297 -5 673 l-1 682 75 0 c41 0 75
-3 75 -6z m3689 -676 c0 -376 -2 -678 -5 -673 -3 8 -144 1327 -144 1349 0 3
34 6 75 6 l75 0 -1 -682z m-2969 -50 c0 -30 -62 -624 -66 -627 -2 -2 -6 -2 -8
0 -4 3 -66 597 -66 627 0 8 24 12 70 12 46 0 70 -4 70 -12z m640 0 c0 -30 -62
-624 -66 -627 -2 -2 -6 -2 -8 0 -4 3 -66 597 -66 627 0 8 24 12 70 12 46 0 70
-4 70 -12z m960 0 c0 -30 -62 -624 -66 -627 -2 -2 -6 -2 -8 0 -4 3 -66 597
-66 627 0 8 24 12 70 12 46 0 70 -4 70 -12z m640 0 c0 -30 -62 -624 -66 -627
-2 -2 -6 -2 -8 0 -4 3 -66 597 -66 627 0 8 24 12 70 12 46 0 70 -4 70 -12z"/>
<path d="M1600 1920 l0 -80 160 0 160 0 0 80 0 80 -160 0 -160 0 0 -80z"/>
<path d="M3200 1920 l0 -80 160 0 160 0 0 80 0 80 -160 0 -160 0 0 -80z"/>
</g>
</svg>
