<?xml version="1.0" standalone="no"?>
<!DOCTYPE svg PUBLIC "-//W3C//DTD SVG 20010904//EN"
 "http://www.w3.org/TR/2001/REC-SVG-20010904/DTD/svg10.dtd">
<svg version="1.0" xmlns="http://www.w3.org/2000/svg"
 width="512.000000pt" height="512.000000pt" viewBox="0 0 512.000000 512.000000"
 preserveAspectRatio="xMidYMid meet">

<g transform="translate(0.000000,512.000000) scale(0.100000,-0.100000)"
fill="#000000" stroke="none">
<path d="M901 5103 c-43 -22 -70 -58 -81 -109 -5 -21 -10 -146 -10 -276 l0
-238 -139 0 c-127 0 -141 -2 -172 -23 -94 -63 -88 -193 12 -252 28 -16 57 -20
166 -23 l133 -4 0 -204 0 -204 -139 0 c-127 0 -141 -2 -172 -23 -94 -63 -88
-193 12 -252 28 -16 57 -20 166 -23 l133 -4 0 -198 0 -198 -133 -4 c-145 -4
-179 -15 -221 -71 -29 -39 -29 -125 0 -164 42 -56 76 -67 221 -71 l133 -4 0
-198 0 -198 -133 -4 c-145 -4 -179 -15 -221 -71 -29 -39 -29 -125 0 -164 42
-56 76 -67 221 -71 l133 -4 0 -198 0 -198 -133 -4 c-109 -3 -138 -7 -166 -23
-100 -59 -106 -189 -12 -252 31 -21 45 -23 172 -23 l139 0 0 -204 0 -204 -133
-4 c-109 -3 -138 -7 -166 -23 -100 -59 -106 -189 -12 -252 31 -21 45 -23 172
-23 l138 0 3 -262 c3 -242 5 -266 23 -297 11 -19 33 -43 48 -55 l28 -21 1839
0 1839 0 27 21 c15 11 37 33 48 48 l21 27 0 2459 0 2459 -21 27 c-11 15 -33
37 -48 48 l-27 21 -1827 3 c-1724 2 -1829 1 -1861 -15z m3489 -2543 l0 -2260
-1640 0 -1640 0 2 168 3 167 121 5 c134 6 161 16 190 73 37 70 12 162 -56 201
-26 16 -57 21 -147 24 l-113 5 2 201 3 201 121 5 c134 6 161 16 190 73 37 70
12 162 -56 201 -26 16 -57 21 -147 24 l-113 5 0 197 0 197 114 5 c88 4 122 10
147 25 96 55 96 201 0 256 -25 15 -59 21 -147 25 l-114 5 0 197 0 197 114 5
c88 4 122 10 147 25 96 55 96 201 0 256 -25 15 -59 21 -147 25 l-114 5 0 197
0 197 113 5 c90 3 121 8 147 24 68 39 93 131 56 201 -29 57 -56 67 -190 73
l-121 5 -3 201 -2 201 113 5 c90 3 121 8 147 24 68 39 93 131 56 201 -29 57
-56 67 -190 73 l-121 5 -3 168 -2 167 1640 0 1640 0 0 -2260z"/>
<path d="M2565 4513 c-68 -15 -358 -109 -395 -128 -190 -97 -315 -322 -367
-657 -21 -139 -23 -481 -4 -643 120 -1030 631 -2069 1170 -2384 108 -64 209
-93 316 -93 81 0 108 5 265 54 96 30 191 63 210 73 65 33 116 83 150 147 29
54 35 75 38 148 4 83 2 90 -82 360 -125 399 -131 412 -188 475 -29 32 -72 65
-106 82 -50 25 -68 28 -152 28 -86 0 -109 -5 -243 -49 l-149 -48 -37 25 c-77
51 -174 185 -246 342 -122 261 -187 586 -156 783 19 123 16 120 204 180 229
74 291 120 343 257 38 99 29 154 -80 500 -100 315 -125 378 -170 433 -70 82
-223 137 -321 115z m88 -315 c15 -16 51 -117 115 -321 86 -273 92 -300 79
-320 -11 -17 -54 -35 -168 -71 -185 -58 -213 -71 -266 -129 -53 -57 -79 -109
-104 -205 -70 -272 1 -696 176 -1057 155 -317 339 -495 530 -511 53 -5 79 0
221 45 168 53 205 59 222 39 15 -19 192 -590 192 -620 0 -14 -6 -31 -14 -37
-27 -23 -300 -103 -352 -103 -173 -2 -442 248 -661 612 -230 383 -428 943
-502 1425 -83 535 -28 988 139 1138 31 29 67 44 187 82 81 25 153 48 158 50
20 7 26 5 48 -17z"/>
</g>
</svg>
