<?xml version="1.0" standalone="no"?>
<!DOCTYPE svg PUBLIC "-//W3C//DTD SVG 20010904//EN"
 "http://www.w3.org/TR/2001/REC-SVG-20010904/DTD/svg10.dtd">
<svg version="1.0" xmlns="http://www.w3.org/2000/svg"
 width="512.000000pt" height="512.000000pt" viewBox="0 0 512.000000 512.000000"
 preserveAspectRatio="xMidYMid meet">

<g transform="translate(0.000000,512.000000) scale(0.100000,-0.100000)"
fill="#000000" stroke="none">
<path d="M1810 5111 c-84 -26 -151 -93 -175 -174 -13 -47 -15 -140 -13 -721
l3 -668 28 -24 c37 -32 77 -31 111 2 l26 27 0 528 0 529 1580 0 1580 0 0
-1029 c0 -658 -4 -1039 -10 -1056 -22 -58 52 -55 -1550 -55 -1450 0 -1470 0
-1490 -20 -48 -48 -28 -121 38 -140 26 -8 470 -10 1512 -8 l1475 3 45 23 c66
35 107 79 130 139 20 53 20 79 20 1251 l0 1197 -24 50 c-27 58 -65 99 -121
129 l-40 21 -1550 2 c-852 1 -1561 -2 -1575 -6z m3111 -190 c25 -26 29 -37 29
-85 l0 -56 -1581 0 -1581 0 4 62 c4 51 9 65 32 85 l27 23 1520 0 1521 0 29
-29z"/>
<path d="M2014 4426 c-20 -9 -35 -25 -42 -45 -13 -36 -8 -56 21 -88 l20 -23
547 0 547 0 20 23 c29 32 34 52 21 88 -20 59 -24 59 -590 59 -409 -1 -519 -4
-544 -14z"/>
<path d="M3384 4430 c-55 -22 -70 -95 -29 -135 23 -24 30 -25 143 -25 105 0
121 2 140 20 44 41 35 110 -18 137 -28 14 -203 17 -236 3z"/>
<path d="M4660 4428 c-15 -8 -85 -103 -173 -233 -81 -121 -151 -221 -156 -223
-5 -2 -73 44 -151 102 -150 113 -176 123 -221 87 -14 -11 -95 -161 -193 -358
l-169 -338 -166 -125 c-185 -139 -203 -162 -177 -217 19 -40 60 -59 97 -46 14
6 107 72 207 147 l182 137 150 299 c83 165 152 300 155 300 3 0 59 -40 123
-88 64 -49 127 -94 139 -100 28 -15 74 -15 94 1 9 7 98 135 198 286 163 245
182 278 177 305 -12 57 -68 88 -116 64z"/>
<path d="M803 4166 c-175 -43 -322 -190 -363 -365 -9 -39 -11 -102 -7 -220 9
-248 36 -330 147 -442 103 -104 211 -149 360 -149 218 0 395 121 470 322 21
56 40 228 40 363 0 241 -145 430 -377 490 -68 18 -198 18 -270 1z m287 -188
c67 -31 130 -90 157 -149 25 -53 36 -109 23 -109 -23 0 -89 81 -105 129 -19
57 -45 81 -89 81 -23 0 -45 -15 -100 -68 -46 -45 -94 -80 -137 -100 -65 -31
-172 -62 -218 -62 -22 0 -23 2 -18 45 16 115 103 210 230 251 66 22 190 13
257 -18z m13 -342 c34 -33 77 -62 112 -77 l58 -24 -6 -71 c-10 -134 -86 -240
-206 -285 -75 -28 -205 -24 -269 10 -109 56 -172 151 -180 266 l-4 72 61 7
c110 13 249 65 334 127 22 16 41 29 43 29 1 0 27 -24 57 -54z"/>
<path d="M4635 4005 l-25 -24 0 -641 0 -641 25 -24 c46 -47 125 -25 140 37 3
13 4 303 3 645 l-3 621 -24 26 c-33 35 -83 35 -116 1z"/>
<path d="M2370 3919 c-34 -15 -166 -141 -543 -517 l-497 -497 -498 -5 c-310
-4 -508 -10 -527 -17 -157 -55 -266 -178 -295 -332 -6 -33 -10 -296 -10 -681
0 -682 -1 -673 56 -747 53 -69 157 -109 244 -93 l40 7 0 -54 c0 -68 20 -108
61 -122 22 -7 194 -11 541 -11 564 0 566 0 587 60 8 24 11 239 11 741 l0 708
183 198 c101 109 354 380 561 603 208 223 385 421 395 440 60 115 12 264 -102
319 -57 28 -146 28 -207 0z m153 -167 c28 -25 20 -57 -30 -115 -27 -29 -277
-300 -558 -601 -280 -302 -521 -567 -535 -589 l-25 -42 -5 -690 -5 -690 -425
0 -425 0 -5 657 c-5 602 -6 659 -22 677 -37 43 -109 33 -135 -19 -10 -19 -13
-148 -13 -558 l0 -533 -25 -24 c-46 -47 -125 -25 -140 37 -3 13 -4 307 -3 653
3 624 3 630 25 670 25 47 74 95 123 121 32 18 72 19 540 24 l505 5 45 24 c30
15 215 193 547 523 539 537 513 516 566 470z"/>
<path d="M888 2626 c-36 -27 -38 -60 -38 -577 0 -423 2 -516 15 -544 23 -58
90 -70 135 -25 19 19 20 36 20 568 l0 549 -23 21 c-26 25 -82 29 -109 8z"/>
<path d="M3975 3658 c-46 -24 -45 -18 -45 -503 l0 -462 23 -21 c33 -31 87 -29
118 4 l24 26 3 431 c4 472 1 497 -48 522 -34 18 -48 18 -75 3z"/>
<path d="M4315 3488 c-44 -25 -44 -26 -45 -414 0 -361 1 -372 21 -398 16 -20
29 -26 57 -26 44 1 67 16 82 54 6 17 10 156 10 367 0 371 -4 400 -55 419 -33
13 -45 12 -70 -2z"/>
<path d="M3633 3145 c-48 -20 -55 -60 -51 -267 3 -171 4 -177 27 -202 32 -34
88 -36 119 -3 21 22 22 32 22 228 0 193 -1 207 -20 227 -12 12 -25 22 -30 22
-4 0 -14 2 -22 5 -7 2 -27 -2 -45 -10z"/>
<path d="M2241 2114 c-168 -45 -311 -193 -351 -364 -14 -60 -8 -334 10 -425
25 -125 136 -272 250 -330 185 -94 420 -66 576 69 97 83 150 199 164 361 27
305 -3 430 -134 560 -106 104 -212 145 -371 144 -49 0 -114 -7 -144 -15z m304
-184 c120 -58 185 -167 185 -308 -2 -291 -43 -398 -181 -472 -164 -87 -371
-27 -452 131 -52 102 -64 409 -19 495 43 84 111 142 197 171 65 21 210 12 270
-17z"/>
<path d="M4100 2107 c-167 -57 -285 -177 -326 -331 -9 -32 -14 -106 -14 -203
0 -258 33 -366 150 -484 73 -74 139 -112 232 -134 236 -55 474 52 573 259 44
93 56 164 58 359 2 188 -9 239 -74 337 -68 101 -170 173 -290 205 -84 23 -231
19 -309 -8z m291 -167 c108 -40 174 -111 205 -217 13 -45 14 -78 6 -212 -8
-137 -13 -167 -35 -213 -32 -68 -88 -125 -157 -157 -74 -35 -210 -37 -282 -4
-70 32 -131 94 -164 166 -28 61 -29 64 -29 252 0 217 4 232 87 313 90 87 249
118 369 72z"/>
<path d="M1835 836 c-116 -37 -207 -116 -258 -224 l-32 -67 -3 -235 c-2 -129
-1 -245 3 -257 6 -24 51 -53 84 -53 11 0 33 11 48 24 l28 24 5 234 5 235 30
49 c19 30 49 60 79 79 l49 30 517 0 517 0 49 -30 c30 -19 60 -49 79 -79 l30
-49 5 -235 5 -234 28 -24 c40 -34 91 -28 124 15 19 24 17 451 -1 512 -36 118
-116 211 -225 263 l-66 31 -530 2 c-409 2 -539 -1 -570 -11z"/>
<path d="M3699 832 c-110 -41 -200 -120 -245 -217 -35 -76 -46 -175 -42 -381
l3 -186 28 -24 c15 -13 37 -24 48 -24 33 0 78 29 84 53 2 12 6 116 8 232 3
227 8 249 63 314 15 19 51 44 79 57 l50 24 493 0 c543 0 534 1 600 -63 72 -69
76 -87 82 -340 l5 -229 28 -24 c38 -32 72 -31 108 5 l29 29 0 205 c0 112 -5
228 -10 257 -21 108 -99 219 -195 275 -92 54 -99 55 -655 54 -455 0 -520 -2
-561 -17z"/>
</g>
</svg>
